<svg version="1.1" id="Layer_1" xmlns="http://www.w3.org/2000/svg" x="0" y="0" width="100%" viewBox="0 0 859 343" xml:space="preserve"><path fill="#FFF" d="M380 134.998h107.75l19.952-51.603c-1.784-.095-3.022-.218-4.26-.22-17.829-.012-35.66.079-53.487-.087-3.215-.03-4.668.988-5.698 4.003-3.708 10.853-7.7 21.61-11.674 32.656h-103.17c-3.071-16.175 3.309-30.044 17.543-39.21 22.007-14.17 57.497-11.662 75.088 14.773 3.064-8.47 6.334-16.4 8.741-24.584 1.397-4.748 3.737-5.873 8.418-5.839 29.825.218 59.652.111 89.48.111h6.289c-4.748 11.979-9.318 23.486-13.87 35-4.51 11.41-9 22.826-13.755 34.885h29.17v17.973H321.453v-17.858H380m-27.824-30.444h53.48c-6.095-10.425-21.155-16.574-33.734-14.23-8.12 1.514-15.821 4.086-21.3 10.84-.992 1.224-3.225 3.056 1.554 3.39zM692 166.13h161.662v18.753H569.15V166.13H692zM35 168.195h253.95v18.675H4.235v-18.675H35zM269.054 241.87c7.066 5.017 11.225 11.71 11.93 19.787.703 8.044.986 16.348-.218 24.284-1.96 12.93-9.91 21.5-22.612 25.282-17.77 5.291-35.908 1.656-53.847 2.911l-.197-1.638 7.05-.838v-74.345l-7.723-.741c1.01-.906 1.33-1.44 1.64-1.436 15.964.244 31.953.088 47.873 1.07 5.359.33 10.539 3.56 16.104 5.664m-35.203 4.665v65.114c13.206 1.02 20.452-3.626 22.962-15.323 3.1-14.443 3.15-29.105.317-43.587-2.397-12.253-10.577-17.297-23.279-15.046v8.842zM581.323 338.16c1.36.423 2.294.847 3.23 1.27l-.371 1.174h-41.538l-.426-1.333 5.93-1.823v-74.369l-5.564-1.317.183-1.243h26.712l.53 6.008c4.161-4.846 8.735-7.628 14.804-7.537 8.98.134 15.164 4.198 18.299 12.667 3.152 8.519 2.975 17.284 1.512 26.083-2.805 16.872-21.015 21.386-34.449 14.207v26.21c3.584 0 7.153 0 11.148.002m1.967-44.69c-.163-7.638-.047-15.3-.665-22.902-.178-2.195-2.468-4.219-3.79-6.321-2.196 1.53-5.711 2.63-6.375 4.661-4.157 12.725-3.472 25.778-.728 38.673.34 1.603 3.712 3.515 5.677 3.512 1.536-.002 3.96-2.523 4.42-4.326 1.013-3.969 1.034-8.191 1.461-13.296zM378.515 62.773c-14.99 2.084-27.005-11.134-28.756-23.21C347.517 24.11 355.81 10.015 369.6 6.41c9.636-2.52 20.231 1.926 26.279 11.029 11.483 17.284 2.858 40.35-17.364 45.334m-3.068-38.838c-4.232.45-6.557 3.197-7.406 6.976-.974 4.337-.614 8.652 2.95 11.955 2.864 2.656 6.52 2.268 9.119-.815 4.804-5.701 2.899-14.481-4.663-18.116zM452.834 315.006c-3.792-.12-7.194.18-10.422-.435-15.296-2.913-22.68-13.84-21.2-30.95 1.293-14.933 11.321-24.359 26.278-24.602 3.49-.057 7.054-.258 10.464.317 12.708 2.143 18.98 8.633 20.31 21.566.52 5.055.286 10.369-.677 15.358-2.257 11.698-10.876 18.057-24.753 18.746m-3.194-2.141c5.148-.182 6.337-3.923 6.404-7.9.197-11.78.114-23.566-.01-35.348-.019-1.767-.562-3.663-1.348-5.259-2.03-4.118-6.678-4.319-9.122-.459-.694 1.097-1.386 2.447-1.395 3.686-.097 13.09-.258 26.188.16 39.266.065 2.011 2.971 3.932 5.311 6.014zM526.18 312.35c-7.687.922-15.211 3.003-22.361 2.104-15.79-1.986-23.72-14.583-21.503-31.853 1.89-14.723 11.691-23.434 26.63-23.59 3.32-.034 6.706-.237 9.95.304 12.673 2.115 19.034 8.617 20.345 21.47.532 5.205.166 10.651-.752 15.817-1.25 7.033-5.246 12.479-12.31 15.748m-22.115-28.83c.325 7.646.469 15.306 1.06 22.932.258 3.312 2 6.263 5.871 6.348 3.972.088 5.779-2.914 5.832-6.228.208-12.963.191-25.936-.095-38.898-.07-3.209-1.722-6.46-5.688-6.448-3.882.012-5.439 3.118-5.863 6.38-.642 4.94-.77 9.946-1.117 15.914zM313.965 306.906c13.741 10.59 20.705 1.212 27.198-9.571-.268 9.156-6.909 16.106-16.52 17.386-4.89.652-10.055.723-14.904-.089-14-2.342-21.557-12.324-21.465-27.412.091-14.783 8.04-24.853 21.906-27.193 4.199-.708 8.671-1.119 12.833-.473 14.189 2.2 20.078 10.269 18.732 25.458h-31.092c-.26 7.643-.605 14.854 3.312 21.894m4.277-24.017c1.17-.926 3.31-1.819 3.342-2.783.15-4.463.084-9.011-.69-13.39-.313-1.767-2.849-4.606-3.986-4.432-1.888.289-4.609 2.39-4.956 4.131-1.044 5.238-1.112 10.67-1.598 16.475h7.888zM642.866 266.069c-4.502-4.302-9.757-5.29-15.072-3.895-2.432.638-5.37 3.044-6.06 5.273-.435 1.404 2.464 4.884 4.581 5.822 4.81 2.13 10.138 3.047 15.111 4.855 9.138 3.32 12.932 8.834 12.853 17.991-.09 10.382-5.495 17.26-15.766 18.523-4.975.612-10.329.03-15.224-1.175-4.274-1.052-8.219-4.52-11.908 1.278v-19.384l.913-.46c.62 1.301 1.297 2.58 1.855 3.908 4.402 10.487 10.488 14.203 21.83 13.253 3.911-.327 7.354-1.563 7.98-6.02.601-4.284-2.723-5.762-5.918-6.856-4.542-1.555-9.263-2.597-13.783-4.21-10.557-3.768-14.881-10.926-13.006-21.064 1.727-9.34 8.997-15.032 19.485-14.85 3.253.056 6.693.487 9.685 1.666 3.81 1.502 6.958 2.294 9.954-3.49v19.504c-2.743-3.94-4.995-7.175-7.51-10.67zM382.454 307.583c-1.124 2.361-1.82 5.813-3.133 6.065-3.839.739-7.939.372-11.898.011-.715-.065-1.355-2.11-1.844-3.316-5.317-13.1-10.525-26.246-15.93-39.31-1.58-3.818-1.841-8.939-8.34-8.839l.684-1.306h33.693l.142 1.333-6.792 1.102 12.252 33.97 1.086.052 11.091-34.044-7.314-.979.137-1.493h15.529c-7.329 1.46-6.677 8.001-8.29 12.674-3.853 11.163-7.31 22.464-11.073 34.08zM409.605 251.55c-.689-6.4-1.147-12.383-2.016-18.305-.756-5.148 3.21-4.608 5.977-5.173 3.091-.632 5.379.708 5.238 4.206-.112 2.806-.582 5.62-1.14 8.381a443.51 443.51 0 0 1-3.79 17.054c-.216.887-1.29 1.564-1.968 2.339-.575-.863-1.448-1.659-1.66-2.603-.398-1.773-.414-3.632-.641-5.898z"/></svg>