<svg xmlns="http://www.w3.org/2000/svg" aria-hidden="true" style="position:absolute;width:0;height:0;overflow:hidden"><defs><symbol id="burger-icon" viewBox="0 0 32 32"><path d="M2 8h28a1 1 0 0 1 0 2H2a1 1 0 0 1 0-2zM2 15h28a1 1 0 0 1 0 2H2a1 1 0 0 1 0-2zM2 22h28a1 1 0 0 1 0 2H2a1 1 0 0 1 0-2z"/></symbol><symbol id="close-icon" viewBox="0 0 32 32"><path d="m17.253 16 7.369-7.369a.886.886 0 0 0-.047-1.207.893.893 0 0 0-1.207-.047l-7.369 7.369L8.63 7.368A.892.892 0 0 0 7.368 8.63l7.378 7.369-7.378 7.369a.891.891 0 0 0-.05 1.304.89.89 0 0 0 1.304-.05L16 17.253l7.369 7.369a.886.886 0 0 0 1.207-.047.89.89 0 0 0 .047-1.207l-7.369-7.369z"/></symbol><symbol id="mobile-menu-arrow-icon" viewBox="0 0 32 32"><path d="m16.724 21.24 10.62-11.146a1.001 1.001 0 0 0 0-1.38l-.012-.012a.921.921 0 0 0-1.334 0l-10 10.496L6.002 8.702a.921.921 0 0 0-1.334 0l-.012.012a1.001 1.001 0 0 0 0 1.38l10.62 11.146a.994.994 0 0 0 .724.31.993.993 0 0 0 .724-.31z"/></symbol><symbol id="hero-arrow-icon" viewBox="0 0 32 32"><path d="m7.791 12.791 7.543 7.543 7.543-7.543-.943-.943-6.6 6.6-6.6-6.6-.943.943z"/><path d="m7.791 12.791 7.543 7.543 7.543-7.543-.943-.943-6.6 6.6-6.6-6.6-.943.943z"/></symbol><symbol id="heart-icon" viewBox="0 0 35 32"><path fill="#fd5103" d="m17.684 32-2.564-2.302C6.013 21.554 0 16.183 0 9.591 0 4.22 4.28 0 9.726 0c3.077 0 6.03 1.413 7.958 3.645C19.612 1.413 22.565 0 25.642 0c5.447 0 9.726 4.22 9.726 9.591 0 6.592-6.013 11.963-15.12 20.124l-2.564 2.284z" style="fill:var(--color1, #fd5103)"/><path d="m17.684 28.632-2.076-1.817c-7.373-6.429-12.24-10.67-12.24-15.874 0-4.24 3.464-7.572 7.874-7.572 2.491 0 4.882 1.115 6.442 2.877 1.56-1.762 3.951-2.877 6.442-2.877 4.409 0 7.874 3.332 7.874 7.572 0 5.204-4.867 9.444-12.24 15.888l-2.076 1.803z"/></symbol><symbol id="login-icon" viewBox="0 0 31 32"><path fill="#fd5103" d="M15.61 2.992C8.429 2.992 2.602 8.82 2.602 16S8.43 29.008 15.61 29.008c7.18 0 13.008-5.828 13.008-13.008S22.79 2.992 15.61 2.992zm0 5.203c2.511 0 4.553 2.042 4.553 4.553s-2.042 4.553-4.553 4.553-4.553-2.042-4.553-4.553 2.042-4.553 4.553-4.553zm0 18.212c-2.641 0-5.763-1.067-7.987-3.746a12.938 12.938 0 0 1 15.974 0c-2.224 2.68-5.346 3.746-7.987 3.746z" style="fill:var(--color1, #fd5103)"/></symbol><symbol id="not-found" viewBox="0 0 29 32"><path fill="#fd5103" d="M26.994 8.196c-2.502-3.691-8.789-9.54-18.353-5.771S.167 12.726.594 15.254c.426 2.528.993 5.807 4.742 8.258s7.944 2.52 12.431 2.307c4.487-.213 9.644-2.803 10.633-6.306s1.097-7.625-1.405-11.316z" style="fill:var(--color1, #fd5103)"/><path fill="#f2f0eb" d="M12.903 8.341s-.975.619-.93.729.288.486.288.486.696 1.342 1.595 1.591c1.196.332 1.661-.332 2.038-1.017s.443-5.327.31-5.394-.842.309-1.063 1.238c-.221.928-.399 2.763-.532 2.874s-1.262-.221-1.262-.221l-.443-.287z" style="fill:var(--color3, #f2f0eb)"/><path fill="#f5aa8a" d="M10.268 8.01s-.738-.118-.738.118.236.324.384.324c.148 0 .148.147.413.147s.502.088.886.059c.384-.029.797.265.797.265s.148.332.672-.007c.144-.093.266-.221.244-.376s-.19-.681-.325-.796c-.207-.177-2.333.265-2.333.265z" style="fill:var(--color4, #f5aa8a)"/><path fill="#93b3c5" d="M10.998 8.37c1.58 0 2.861-.261 2.861-.583s-1.281-.583-2.861-.583c-1.58 0-2.861.261-2.861.583s1.281.583 2.861.583z" style="fill:var(--color5, #93b3c5)"/><path fill="#a1c4da" d="M12.903 5.652c-.854-.677-1.905-.59-1.905-.59s-1.051-.087-1.905.59c-.854.677-.788 2.076-.788 2.076s.54.437 2.693.437 2.693-.437 2.693-.437.066-1.399-.788-2.076z" style="fill:var(--color6, #a1c4da)"/><path fill="#b3d9ed" d="M12.264 5.502a2.69 2.69 0 0 0-1.067-.442c-.053-.002-.098-.001-.13-.001.226.107.458.256.678.465.875.83.807 2.543.807 2.543l-.001.001c.45-.066.738-.153.912-.223-.069-.423-.347-1.747-1.2-2.342z" style="fill:var(--color7, #b3d9ed)"/><path fill="#b3d9ed" d="m11.072 5.059-.074.003-.026-.002c.073.101.145.215.213.348.427.829.405 2.231.38 2.745.143-.006.277-.014.403-.023-.015-.577-.104-1.942-.582-2.682a2.27 2.27 0 0 0-.315-.39z" style="fill:var(--color7, #b3d9ed)"/><path fill="#93b3c5" d="M11.167 4.963c0-.234-.032-.425-.169-.425s-.169.19-.169.425c0 .093-.003.178.005.248a1.079 1.079 0 0 0 .328 0c.008-.07.005-.155.005-.248z" style="fill:var(--color5, #93b3c5)"/><path fill="#63363b" d="M15.392 25.06s.293.106.689.136.957-.102.957-.102.153.866.091 1.378c-.031.257-.198.303-.535.518-.211.136-.499.429-.83.602-.351.182-1.253.179-1.612.008-.754-.358-.479-.752-.036-1.072.157-.113.431-.354.568-.52.406-.489.707-.948.707-.948z" style="fill:var(--color8, #63363b)"/><path fill="#363b4e" d="M14.961 17.613c-.014-.91-.11-3.298.055-3.67.142-.321 1.398-.707 2.005-.421s1.064 1.284 1.064 1.284-.055 1.394-.264 2.247c-.208.853-.605 2.55-.605 2.55s.383 1.013.31 1.944c-.105 1.347-.488 3.522-.488 3.522s-.332.142-.822.131c-.524-.011-.844-.103-.844-.103s.017-1.362-.14-3.035c-.06-.643-.256-3.538-.27-4.449z" style="fill:var(--color9, #363b4e)"/><path fill="#63363b" d="M19.356 25.383s.298.091.695.101.951-.149.951-.149.196.858.159 1.372c-.019.258-.183.313-.508.544-.204.146-.478.454-.799.642-.342.199-1.243.241-1.61.088-.771-.32-.516-.728-.089-1.069.151-.121.413-.375.542-.548.381-.509.659-.981.659-.981z" style="fill:var(--color8, #63363b)"/><path fill="#363b4e" d="M17.832 17.756c-.153-2.454-.036-3.177.11-3.557.126-.328 1.486-.685 2.106-.43s1.126 1.23 1.126 1.23.054 1.191-.03 1.842c-.084.652-.47 2.908-.47 2.908s.414.993.387 1.927C21.023 23.026 21 25.31 21 25.31s-.324.158-.815.172c-.524.015-.849-.062-.849-.062s-.593-1.956-.834-3.62c-.092-.64-.582-2.612-.671-4.044z" style="fill:var(--color9, #363b4e)"/><path fill="#3e4858" d="M21.216 11.104c.03-.578-.037-.847.081-1.857.073-.622.421-1.592.465-2.277s.236-1.645-.354-2.078c-.59-.433-2.446-.743-3.166-.749s-1.33.064-1.994.417c-.733.39-.72 1.026-.82 2.1-.011.12-.106 1.377-.124 1.864-.042 1.158-.102 2.156-.234 2.792s-.349 3.052-.351 3.206c0 0 .532.501 1.004.619s.913.176 1.536.265c.122.017.295-.884.295-.884l.266.973s1.063.177 1.89.059 1.801-.619 1.801-.619-.325-3.254-.295-3.831z" style="fill:var(--color10, #3e4858)"/><path fill="#f2f0eb" d="M19.558 4.563s-1.856 5.416-2.039 5.474-.74-2.332-.747-3.93c-.007-1.599.237-1.946.237-1.946l2.55.402z" style="fill:var(--color3, #f2f0eb)"/><path fill="#363b4e" d="M17.074 8.291c.098 1.082.461 1.837.392 1.9s-.502-.796-.709-1.297c-.137-.333-.416-1.359-.48-1.834s.293-.972.293-.972-.258-.367-.229-.685.146-.888.238-1.018c.155-.221.554-.31.554-.31s-.157 3.134-.059 4.216z" style="fill:var(--color9, #363b4e)"/><path fill="#363b4e" d="M19.509 4.222s.586.008.691.148-.069.897-.11 1.255c-.041.358-.596.622-.596.622s.367.606.074 1.174c-.351.679-1.862 2.939-2.102 2.769-.136-.097.72-1.598 1.327-3.485.461-1.434.716-2.484.716-2.484z" style="fill:var(--color9, #363b4e)"/><path fill="#fff" d="M19.147 3.798s.307.169.39.311.021.454.021.454-.185.53-.401.767c-.215.237-.757.681-.757.681l-.559-.952 1.306-1.26z" style="fill:var(--color11, #fff)"/><path fill="#fff" d="M17.511 3.826s-.333.103-.39.227-.109.489-.109.489.023.361.074.589c.057.253.275.779.275.779l.521-.761-.371-1.325z" style="fill:var(--color11, #fff)"/><path fill="#a4273b" d="M17.732 5.047s-.705-.568-.773-.228-.112.923.128.926c.24.002.545-.309.545-.309l.101-.389zM17.955 5.101s.795-.433.802-.086-.054.929-.291.888c-.237-.04-.481-.401-.481-.401l-.03-.401z" style="fill:var(--color12, #a4273b)"/><path fill="#bd273b" d="M17.809 5.017c-.148.009-.232.039-.249.184s-.07.353.032.392c.102.039.391.074.431-.028s.029-.345.023-.412c-.005-.068-.089-.145-.237-.136z" style="fill:var(--color13, #bd273b)"/><path fill="#b77e20" d="M17.704 11.236c-.004.08.058.149.139.154s.15-.058.154-.138c.004-.081-.058-.149-.139-.154s-.15.058-.154.138zM17.741 12.69a.146.146 0 0 0 .293.015c.004-.081-.058-.149-.139-.154s-.15.058-.154.138zM17.756 14.131c-.004.081.058.149.139.154s.15-.058.154-.138c.004-.081-.058-.149-.139-.154s-.15.058-.154.138z" style="fill:var(--color14, #b77e20)"/><path fill="#f5aa8a" d="m17.369 3.335 1.744-.438.186 1.282s-.165.139-.438.353-.978.597-.978.597-.291-.341-.404-.471c-.113-.131-.242-.496-.242-.496l.132-.827z" style="fill:var(--color4, #f5aa8a)"/><path fill="#f5aa8a" d="M17.011.71c.375-.634 1.354-.63 1.854-.338.768.45.846 1.489.564 2.395-.155.498-.391.828-.811 1.058-.912.499-1.488.088-1.669-.206-.2-.328-.284-1.137-.276-1.447.01-.453-.037-.828.338-1.462z" style="fill:var(--color4, #f5aa8a)"/><path fill="#411b00" d="M17.285 2.36c-.005.083-.074.145-.153.139s-.139-.077-.134-.159c.006-.082.075-.144.154-.139s.139.076.133.159zM18.444 2.451c-.005.082-.074.145-.153.139s-.139-.076-.133-.159c.006-.082.075-.145.154-.139s.139.076.133.158z" style="fill:var(--color15, #411b00)"/><path fill="#592221" d="M18.803 2.036c-.203-.136-.565-.184-.753 0-.018.017-.005.05.02.049.081-.003.162.008.245.001a.686.686 0 0 1 .413.077c.082.049.153-.075.075-.127zM16.926 2.027c.057-.046.185-.031.251-.025.08.007.189.02.264.048.02.007.043-.016.036-.035-.079-.221-.496-.236-.655-.091-.071.065.032.163.104.104z" style="fill:var(--color16, #592221)"/><path fill="#d27d73" d="M17.792 3.194s-.024-.002-.064-.013-.096-.031-.158-.069a.523.523 0 0 1-.094-.076.377.377 0 0 1-.078-.127l-.009-.032c-.002-.016-.005-.033-.005-.048 0-.03.006-.064.019-.092.026-.06.071-.094.105-.124s.067-.055.087-.079l.007-.009-.002.004v-.001l.001-.002.002-.004.004-.007c.006-.011.007-.017.01-.024a.674.674 0 0 0 .017-.053c.011-.038.017-.078.025-.115s.014-.073.019-.106l.029-.162.012-.062a1.549 1.549 0 0 0 .026.465c-.003.023-.005.044-.013.072-.004.014-.008.029-.012.038l-.003.008-.002.004-.001.002v.001l-.003.006-.011.019c-.03.05-.07.082-.102.112s-.058.056-.068.078a.082.082 0 0 0-.009.035v.016l.006.03a.267.267 0 0 0 .039.085c.017.029.04.054.061.078a1.578 1.578 0 0 0 .162.153z" style="fill:var(--color17, #d27d73)"/><path fill="#592221" d="M16.7 1.132c.027-.063-.045-.391.021-.544s.406-.327.784-.461c.396-.139.849-.176 1.369-.051s.983.465.979 1.016c-.003.463-.072 1.234-.17 1.273s-.465.176-.465.176-.222-.538-.156-.691c.066-.153-.15-.662-.25-.697-.081.004-.714.189-1.102.197s-.607-.294-.609-.292c0 0-.126.153-.204.287s-.226.519-.226.519-.081-.085-.08-.293c.001-.209.054-.303.112-.439z" style="fill:var(--color16, #592221)"/><path fill="#f5aa8a" d="M19.432 2.045c.307-.107.471.254.352.674-.075.264-.438.385-.591.309.012-.269-.046-.884.239-.984z" style="fill:var(--color4, #f5aa8a)"/><path fill="#d3ecfe" d="M17.752 2.687c.877.027 1.336-.149 1.336-.149s.166.927-.16 1.205c-.306.26-.843.454-1.346.35s-.68-.455-.802-.73c-.123-.275-.126-.899-.126-.899s.22.195 1.098.222z" style="fill:var(--color18, #d3ecfe)"/><path fill="#b1d7de" d="M16.777 2.679s.26.202.891.228c.664.027 1.31-.198 1.31-.198l.018.172s-.88.192-1.3.159-.888-.168-.888-.168l-.031-.191zM16.852 3.199s.241.149.832.173c.623.025 1.296-.195 1.296-.195l-.012.162s-.864.188-1.257.157-.833-.158-.833-.158l-.027-.139zM18.873 3.6c-.243.064-.688.16-1.111.142-.438-.018-.683-.104-.781-.147.011.044.024.087.038.13.135.036.466.116.769.141.265.021.742-.057 1.027-.111a.456.456 0 0 0 .058-.155z" style="fill:var(--color19, #b1d7de)"/><path fill="#f5aa8a" d="M17.68 11.211s-1.039-.528-1.624-.233-.82.701-.869.883c-.1.367.131.334.131.334s-.047.078.043.166c.09.089.167.117.167.117s.017.138.057.165c.04.028.077.043.108.039.124-.014.812-.505 1.137-.603.137-.042.283.072.456.109.239.051.517-.142.517-.142s.101-.599-.123-.835z" style="fill:var(--color4, #f5aa8a)"/><path fill="#f2f0eb" d="M21.063 4.983c-.331.072-.75.595-.881 1.541s-.431 2.771-.465 2.949c-.034.178-.473.406-.845.634-.211.129-.94.68-.94.68l-.484.185s.163.439.233.659.099.595.099.595l.441-.113s.785-.078 1.216-.181c.794-.191 2-.485 2.227-.99s.367-2.659.442-3.412c.076-.753-.054-1.834-.237-2.14s-.473-.478-.804-.406z" style="fill:var(--color3, #f2f0eb)"/><path fill="#dcd8da" d="M18.657 11.724c.001.061-.048.111-.109.112s-.112-.048-.113-.109c-.001-.061.048-.111.109-.112s.112.047.113.109z" style="fill:var(--color20, #dcd8da)"/><path fill="#e9dbda" d="M18.278 10.758c.18.144.652.136.612 1.227s-.096 2.949-.146 3.451c-.05.502-.16.946.077 1.001s.44-.155.44-.155.181.233.565.196c.383-.036.438-.302.674-.307s.382-.125.526-.333c.144-.209.237-1.625.224-2.392s-.226-2.767-.618-3.232c-.392-.465-.971-.609-1.104-.629s-.238.109-.556.275c-.084.044-.262.24-.262.24s-.324.065-.469.215c-.145.15-.142.297.037.441z" style="fill:var(--color21, #e9dbda)"/><path fill="#433431" d="M1.232 25.29c-.075.824-.488 2.848-.601 3.26-.099.363-.188.599.188.562s.45-.112.676-.749c.225-.637.543-2.288.676-3.147.15-.974.225-3.597.225-3.597H1.382s-.075 2.848-.15 3.672zM5.053 20.569c-.022.778-.082 2.685-.141 3.335-.075.824-.488 2.848-.601 3.26-.099.363-.188.599.188.562s.451-.112.676-.749c.225-.637.543-2.289.676-3.148.117-.759.188-2.52.214-3.26H5.053zM8.054 25.29c-.075-.824-.15-3.672-.15-3.672H6.89s.075 2.623.225 3.597c.132.859.451 2.511.676 3.148s.3.712.676.749c.375.038.287-.199.188-.562-.113-.412-.526-2.436-.601-3.26zM10.795 23.904c-.059-.65-.118-2.557-.141-3.335H9.642c.026.74.097 2.501.214 3.26.132.859.451 2.511.676 3.148s.3.712.676.749c.376.038.287-.199.188-.562-.113-.412-.526-2.436-.601-3.26z" style="fill:var(--color22, #433431)"/><path fill="#563e3e" d="M3.71 12.825s-2.29-.125-2.853 0c-.404.09-1.051.25-.801 1.199s.701 4.197.751 5.546c.05 1.349.05 2.448.701 2.598s5.607 0 5.607 0 .851 0 1.902-.4 1.702-.65 1.702-.65.651-.4-.651-.55c-1.302-.15-5.707.05-5.707.05l-.651-7.794z" style="fill:var(--color23, #563e3e)"/><path fill="#6e5550" d="M10.068 20.569c-1.302-.15-5.707.05-5.707.05l-.651-7.794s-2.29-.125-2.853 0c-.054.012-.113.025-.173.042-.059.163-.067.38.01.67.25.949.701 4.197.751 5.546.018.489.05.962.068 1.335.033.689.02 1.276.02 1.276s2.067-.16 2.403-.15c1.553.047 3.867.038 3.867.037s.801.1 1.852-.3l1.201-.458c-.066-.097-.275-.195-.788-.254z" style="fill:var(--color24, #6e5550)"/><path fill="#f5aa8a" d="M7.428 14.284s.135.769.193 1.173.096 1.403.096 1.403l.347.077.097.725s-1.156.41-1.542.006-.212-3.518-.212-3.518l1.021.135z" style="fill:var(--color4, #f5aa8a)"/><path fill="#e49e80" d="m11.406 24.122.586 2.217 1.335-.237-.489-2.322-1.432.342z" style="fill:var(--color25, #e49e80)"/><path fill="#448294" d="M6.131 17.902s5.29-.599 5.912.588 1.247 5.996 1.132 6.168c-.115.172-1.745.348-1.799.164-.099-.337-1.024-3.821-1.283-4.16s-2.3.221-3.313.256c-1.051.038-2.569.271-2.944-.33-.35-.561-.318-2.2-.318-2.2l2.613-.485z" style="fill:var(--color26, #448294)"/><path fill="#f5aa8a" d="m8.924 25.001.277 2.278 1.354-.043-.167-2.368-1.464.133z" style="fill:var(--color4, #f5aa8a)"/><path fill="#4c96a6" d="M4.481 18.225s5.137.361 5.74 1.384c.682 1.157.52 6.022.383 6.175s-1.775.052-1.803-.138c-.052-.348-.58-3.721-.79-4.094s-1.848-.225-3.08-.2c-.541.011-1.484.005-1.978-.154-.466-.15-.904-.468-1.044-.783-.27-.606-.015-2.224-.015-2.224l2.587.033z" style="fill:var(--color27, #4c96a6)"/><path fill="#fd5103" d="M13.342 25.997s.932.61 1.842 1.152c.354.211.678.596.293.905-.191.154-1.225.367-1.923.052-.795-.358-1.478-.331-1.708-.6s.082-1.272.082-1.272l1.413-.237z" style="fill:var(--color1, #fd5103)"/><path fill="#fd5103" d="M13.566 26.91s-.663-.291-.906-.627l.906.627zM15.507 27.654s-.187.231-.668.285-.768.052-1.191-.079c-.423-.131-.655-.318-1.006-.397s-.64-.082-.801-.218zM10.603 27.142s.769.805 1.532 1.539c.297.285.525.734.08.948-.221.106-1.277.08-1.885-.385-.693-.529-1.364-.656-1.527-.97s.368-1.221.368-1.221l1.43.089z" style="fill:var(--color1, #fd5103)"/><path fill="#8db1cc" d="M10.621 25.433s-.335.163-.88.137-.984-.219-.984-.219-.153.295-.014.493c.138.198.466.305 1 .363s.899-.093.988-.296c.088-.202-.11-.478-.11-.478z" style="fill:var(--color28, #8db1cc)"/><path fill="#88a5bd" d="M13.185 24.339s-.293.23-.832.319-1.026-.106-1.026-.106-.069.419.108.584c.177.165.519.2 1.054.145s.86-.28.904-.497c.044-.217-.208-.444-.208-.444z" style="fill:var(--color29, #88a5bd)"/><path fill="#5f6775" d="M2.964 18.93c-.366.192-.977.439-1.171.568s-.279-.375-.253-.632.103-.461.103-.461-.037-.699-.018-.999c.021-.325.039-.64.039-.909.004-1.643-.227-4.116.274-4.924s1.759-1.038 3.082-1c1.323.038 1.99.602 2.145 1.192s.283 1.41.283 1.717.18.743.103.846c-.077.102-.539.154-.539.154s-.174.985-.18 1.256c-.026 1.256-.027 2.114-.027 2.114s-1.146.229-1.843.387c-.697.158-1.317.334-1.997.691z" style="fill:var(--color30, #5f6775)"/><path fill="#5f6775" d="M6.754 11.586s.18.641.205 1.077.128 1.487.051 1.82zM1.694 18.533s1.31-.615 2.466-.82l-2.466.82z" style="fill:var(--color30, #5f6775)"/><path fill="#f5aa8a" d="m5.581 9.962.048.669s.041.692-.565.769S4 10.582 4 10.582L3.998 9.48l1.582.481z" style="fill:var(--color4, #f5aa8a)"/><path fill="#592c30" d="M6.036 7.245s.546.312.533 1.058-.33.792-.585.611c-.255-.181-1.035-1.109-1.035-1.109l.327-.847.759.287z" style="fill:var(--color31, #592c30)"/><path fill="#f5aa8a" d="M6.156 7.702c.306.849.27 2.544-.629 2.647s-1.413 0-1.855-1.397c-.442-1.398.351-1.98.712-2.05.28-.055 1.465-.048 1.773.801z" style="fill:var(--color4, #f5aa8a)"/><path fill="#522c31" d="M4.647 8.854c.024.071.102.11.174.085s.11-.102.085-.173c-.024-.072-.102-.109-.174-.085s-.11.102-.085.173zM5.829 8.804c.026.076.105.117.177.093s.108-.106.082-.182c-.026-.076-.105-.117-.177-.093s-.108.106-.082.181z" style="fill:var(--color32, #522c31)"/><path fill="#d27d73" d="M5.378 8.523c.033.07.059.141.082.212.012.036.021.072.032.108s.018.072.027.108l-.029-.044c.033.019.062.038.091.061s.058.045.084.072a.546.546 0 0 1 .038.044c.012.017.024.033.035.054a.17.17 0 0 1 .022.074.13.13 0 0 1-.025.089l-.014.018-.004.004-.005.004h-.001l-.001.001-.026.019-.043.028c-.015.009-.027.019-.045.027l-.051.023a.779.779 0 0 1-.204.063l.08-.068.076-.064.037-.031c.013-.009.024-.023.037-.035l.036-.036.019-.017.005-.004.001-.001.001-.001-.004.004v-.001l.001-.003c.002-.001 0-.003 0-.003l-.002-.004c.001-.001-.002-.006-.004-.009l-.007-.013a.4.4 0 0 0-.022-.031l-.03-.032c-.022-.021-.044-.043-.069-.063l-.075-.059-.027-.021-.002-.023c-.004-.037-.009-.074-.011-.111s-.006-.074-.006-.112a1.728 1.728 0 0 1 .005-.227z" style="fill:var(--color17, #d27d73)"/><path fill="#592c30" d="m6.197 8.54.016-.002c.051-.006.066-.062.025-.093-.1-.076-.339-.118-.44-.03-.038.033-.003.082.036.087.058.008.119-.013.179-.009.066.005.123.028.187.042l-.012-.091-.014.009c-.036.022-.025.092.023.086zM5.049 8.427c-.046-.059-.153-.061-.221-.068-.112-.012-.259.01-.347.083-.018.015-.015.045 0 .061l-.001-.012c-.001.009.001.02.01.024a.03.03 0 0 1 .008.004c.021.01.042.001.05-.02a.196.196 0 0 1 .006-.014l-.042.032c.098.005.187-.053.286-.053.034 0 .067.005.101.008.017.002.09.006.088.005.032.026.094-.009.063-.049z" style="fill:var(--color31, #592c30)"/><path fill="#fff" d="M5.638 9.585c-.053.019-.249.03-.29.025-.206-.023-.33-.255-.422-.192s-.198.419.133.522c.439.136.579-.354.579-.354z" style="fill:var(--color11, #fff)"/><path fill="#592c30" d="M6.444 7.178c-.267-.26-.484-.286-.484-.286s-.255-.45-.824-.583c-.569-.133-.877.35-.877.35s-.501-.132-.808.283c-.307.415-.149 1.06.328 1.159s.691-.433.691-.433.58.228.854.166c.273-.063.47-.304.47-.304s.218.616.64.508c.314-.08.278-.601.011-.86z" style="fill:var(--color31, #592c30)"/><path fill="#592c30" d="M3.508 7.294s-.528.327-.512.762.297.657.297.657.295.066.405.267c.11.201.264.196.363.09.029-.031.022-.341.022-.341s.087-.202.075-.509a6.312 6.312 0 0 0-.076-.69l-.574-.236z" style="fill:var(--color31, #592c30)"/><path fill="#f5aa8a" d="M3.853 8.864c-.071-.28-.565-.416-.622-.079s.221.737.548.772c.328.035.145-.414.073-.694zM10.193 17.459c-.052-.235-.293-.517-.497-.58-.275-.084-.74-.227-1.018-.151-.096.026-.558.082-.726.185s-.025.595.123.746l.163.003c.233.003.643.06.746.071.179.019.368.184.463.017s-.231-.28-.117-.294a.32.32 0 0 1 .276.115c.097.11.188.215.253.271.159.139.263-.123.263-.123s.122-.031.071-.261z" style="fill:var(--color4, #f5aa8a)"/><path fill="#6e5550" d="M17.872 29.882c0 .371-1.187.507-2.652.507s-2.652-.136-2.652-.507c0-.372 1.187-.673 2.652-.673s2.652.301 2.652.673z" style="fill:var(--color24, #6e5550)"/><path fill="#433431" d="M14.845 18.017v11.441h.002c.008.115.171.208.373.208s.366-.093.373-.208h.002V18.017h-.75z" style="fill:var(--color22, #433431)"/><path fill="#957765" d="M15.22 17.93H6.624l.009.48c.003.164.05.267.157.334.081.051.377.131 1.017.173 2.016.132 6.037.056 7.413.067 1.377-.011 5.398.064 7.413-.067.64-.042.936-.122 1.017-.173.107-.067.154-.17.157-.334l.009-.48H15.22z" style="fill:var(--color33, #957765)"/><path fill="#ae8b76" d="M15.22 17.739c-1.82.006-8.596.053-8.596.191s.781.267 8.596.267 8.596-.128 8.596-.267-6.776-.185-8.596-.191z" style="fill:var(--color34, #ae8b76)"/><path fill="#f3f3f3" d="M17.539 17.852c0 .098-.571.178-1.274.178s-1.274-.08-1.274-.178c0-.098.571-.178 1.274-.178s1.274.08 1.274.178z" style="fill:var(--color35, #f3f3f3)"/><path fill="#d7d7d7" d="M16.265 17.942c.493 0 .893-.05.893-.112s-.4-.112-.893-.112-.893.05-.893.112.4.112.893.112z" style="fill:var(--color36, #d7d7d7)"/><path fill="#fbfbfb" d="M16.265 16.494c-.637 0-.975.098-.975.098 0 .229.221.852.364.967s.333.182.611.182c.278 0 .468-.068.611-.182s.364-.738.364-.967c0 0-.338-.098-.975-.098z" style="fill:var(--color37, #fbfbfb)"/><path fill="#eee" d="M15.312 16.617c0 .036.427.064.954.064s.954-.029.954-.064c0-.036-.427-.097-.954-.097s-.954.062-.954.097z" style="fill:var(--color38, #eee)"/><path fill="#fbfbfb" d="M16.96 17.538c-.063 0-.102-.01-.106-.011l.021-.091c.002 0 .2.047.424-.098.135-.088.225-.216.234-.334a.202.202 0 0 0-.064-.169c-.13-.121-.294.015-.296.016l-.056-.073c.077-.065.262-.151.411-.013a.296.296 0 0 1 .093.247c-.012.147-.118.302-.276.405a.706.706 0 0 1-.385.12z" style="fill:var(--color37, #fbfbfb)"/><path fill="#eee" d="M16.265 17.646c-.517 0-.789-.46-.863-.566.075.213.174.419.25.48.086.069.139.114.167.139-.088.02-.142.046-.142.074 0 .063.263.114.588.114s.587-.051.587-.114c0-.028-.054-.054-.142-.074.029-.025.081-.07.167-.139.076-.061.175-.266.25-.48-.073.106-.346.566-.863.566z" style="fill:var(--color38, #eee)"/><path fill="#f3f3f3" d="M10.271 17.903c0 .098-.571.178-1.274.178s-1.274-.08-1.274-.178c0-.098.571-.178 1.274-.178s1.274.08 1.274.178z" style="fill:var(--color35, #f3f3f3)"/><path fill="#d7d7d7" d="M9.89 17.882c0 .062-.4.112-.893.112s-.893-.05-.893-.112.4-.112.893-.112.893.05.893.112z" style="fill:var(--color36, #d7d7d7)"/><path fill="#433431" d="M22.97 23.107c.022.778.082 2.685.141 3.335.075.824.488 2.848.601 3.26.099.363.188.6-.188.562s-.451-.112-.676-.749c-.225-.637-.543-2.289-.676-3.148-.117-.759-.188-2.52-.214-3.26h1.012z" style="fill:var(--color22, #433431)"/><path fill="#323d67" d="M21.139 27.816s.025.224-.012.485c-.03.215-.129.446-.266.699-.125.233-.333.381-.534.733-.155.271.018.571.279.664.485.173 1.275-.338 1.52-.804.238-.452.548-.692.808-.838s.447-.564.172-.885c-.109-.127-.292-.294-.493-.481-.237-.221-.411-.418-.411-.418l-1.063.845z" style="fill:var(--color39, #323d67)"/><path fill="#dba990" d="M21.51 29.023c.384-.357.586-.813.865-1.125.153-.171.262-.319.247-.5l-.011-.01c-.238-.221-.411-.418-.411-.418l-1.063.845s.025.224-.012.485c-.03.215-.129.446-.266.699a1.154 1.154 0 0 1-.08.125c.095.155.407.196.729-.102z" style="fill:var(--color40, #dba990)"/><path fill="#212a3f" d="M18.741 21.458c-.49.006-.778.157-.856 1.008s1.696 3.833 1.952 4.404c.256.571.528 1.202.528 1.202s.671.019 1.184-.274c.513-.292 1.018-.868 1.018-.868s-1.351-2.708-1.674-3.253c-.323-.545-1.013-1.602-1.013-1.602s-.648-.622-1.138-.617z" style="fill:var(--color41, #212a3f)"/><path fill="#43528b" d="M18.697 28.796s-.023.225-.113.472c-.074.204-.219.41-.405.629-.171.202-.405.303-.675.607-.208.233-.101.562.135.707.439.27 1.318-.066 1.654-.472.326-.393.68-.563.964-.652s.555-.46.352-.83c-.08-.147-.225-.348-.383-.573-.186-.266-.315-.494-.315-.494l-1.215.606z" style="fill:var(--color42, #43528b)"/><path fill="#f5aa8a" d="M18.809 30.054c.45-.269.743-.674 1.08-.921.185-.136.323-.258.346-.438a.083.083 0 0 1-.008-.012c-.186-.266-.315-.494-.315-.494l-1.215.606s-.023.225-.113.472c-.074.204-.219.41-.405.629a1.04 1.04 0 0 1-.104.106c.061.172.358.276.734.051z" style="fill:var(--color4, #f5aa8a)"/><path fill="#344163" d="M17.673 22.08c-.481-.096-.793-.008-1.046.809s.862 4.101.994 4.712.267 1.285.267 1.285.653.157 1.215-.023 1.176-.638 1.176-.638-.759-2.929-.962-3.529c-.203-.6-.658-1.777-.658-1.777s-.504-.743-.985-.839z" style="fill:var(--color43, #344163)"/><path fill="#433431" d="M26.79 27.597c.075.824.488 2.848.601 3.26.099.363.188.599-.188.562s-.45-.112-.676-.749c-.225-.637-.544-2.288-.676-3.147-.15-.974-.225-3.597-.225-3.597h1.014s.075 2.848.15 3.672zM19.968 28.174c.075-.824.15-3.672.15-3.672h1.014s-.075 2.623-.225 3.597c-.132.859-.451 2.511-.676 3.148s-.3.712-.676.749c-.375.038-.287-.199-.188-.562.113-.412.526-2.436.601-3.26zM17.227 26.788c.059-.65.118-2.557.141-3.335h1.012c-.026.74-.097 2.501-.214 3.26-.132.859-.451 2.511-.676 3.148s-.3.712-.676.749c-.375.038-.287-.199-.188-.562.113-.412.525-2.436.601-3.26z" style="fill:var(--color22, #433431)"/><path fill="#563e3e" d="M26.466 24.608c-.357.249-5.558.098-5.558.098s-.851 0-1.902-.4-1.702-.65-1.702-.65-.651-.4.651-.55c1.302-.15 5.707.05 5.707.05s1.302.144 2.111.528c.809.384 1.05.674.694.923z" style="fill:var(--color23, #563e3e)"/><path fill="#344163" d="M20.531 20.763s-3.702.643-3.803 1.991c-.076 1.013.338.624 1.147.547s2.24-.142 3.162.055c.693.149 2.683.288 2.809-.576s-.126-1.729-.481-2.017c-.355-.288-2.835 0-2.835 0z" style="fill:var(--color43, #344163)"/><path fill="#5f6775" d="M25.538 21.676s-.139-2.072-.135-2.392c.008-.659.195-2.292.169-3.605-.035-1.786-.702-2.178-1.451-2.459s-1.89-.067-2.397.067c-.506.135-1.357.914-1.152 2.503s.128 2.051.128 2.871-.631 2.072-.495 2.341c.056.112 1.013 1.28 2.329 1.348s3.004-.674 3.004-.674z" style="fill:var(--color30, #5f6775)"/><path fill="#f5aa8a" d="M17.711 18.399s-.382-.68-1.04-.81-1.223.305-1.226.354c-.001.011-.087.051-.102.147s.034.125.034.125-.143.06-.137.175c.006.115.08.139.08.139s-.116.194.015.213c.113.017.17-.03.287-.041.147-.014.314-.001.427.022.2.042.286.293.523.328.384.058.754.065.919-.054s.22-.599.22-.599z" style="fill:var(--color4, #f5aa8a)"/><path fill="#f5aa8a" d="m17.669 18.225-.272.776s1.068.249 2.173.147 1.793-.212 2.029-.718c.236-.505.478-2.652.411-3.461s-.36-1.205-.796-1.256c-.437-.051-.771.923-.848 1.641s-.36 2.102-.36 2.102-.925.256-1.284.359-1.053.41-1.053.41zM21.981 11.985l-.125 1.292s.385.179.925.128.796-.359.796-.359l-.267-1.142-1.329.08z" style="fill:var(--color4, #f5aa8a)"/><path fill="#f5aa8a" d="M20.899 10.904c.055-.132.078-.625.116-.811.24-1.18 1.499-1.305 2.223-.967s.923 1.872.645 2.339c-.278.468-1.011.804-1.337.935s-.808.385-1.318.157c-.272-.122-.31-.829-.349-.867-.087-.085-.261-.189-.235-.335.115-.189.202-.318.257-.451z" style="fill:var(--color4, #f5aa8a)"/><path fill="#481609" d="M21.314 10.814c-.031-.071-.113-.1-.18-.063s-.097.127-.065.198c.031.071.113.099.18.063s.097-.127.066-.198z" style="fill:var(--color44, #481609)"/><path fill="#954331" d="M21.461 10.644a.04.04 0 0 0 .03-.011.037.037 0 0 0 .01-.036c-.002-.009-.01-.014-.013-.022.012.036.003-.001-.01-.016-.024-.029-.069-.043-.103-.056a.556.556 0 0 0-.33-.024c-.08.021-.045.147.034.124a.471.471 0 0 1 .247.009c.03.007.059.018.089.025l.026.005a.041.041 0 0 0 .019-.001c.022-.007.014-.009-.022-.006l-.01-.036v.001l.026-.026-.003.001c-.037.015-.033.067.01.07z" style="fill:var(--color45, #954331)"/><path fill="#954331" d="M24.707 12.893c-.18-.359-.178-.947-.125-1.726a2.417 2.417 0 0 0-.168-1.105c-.096-.735-.663-1.045-.995-1.198-.345-.16-1.064-.363-1.942.178-.369.228-.554.652-.453.964s.439.391.703.734c.264.344.046.598.36.897.049.047.1.101.151.156a1.073 1.073 0 0 1-.177.459c-.159.208-.122.552-.043.837s.238.624.185.858c-.053.234-.348.74-.117 1.202s.591.769 1.053.59c.462-.179.77-.41 1.181-.487s.924-.297 1.002-.795c.078-.498-.436-1.205-.616-1.564z" style="fill:var(--color45, #954331)"/><path fill="#f5aa8a" d="M21.879 11.25s.131-.535.49-.228-.051.822-.356.805c-.305-.016-.134-.577-.134-.577z" style="fill:var(--color4, #f5aa8a)"/><path fill="#fff" d="M20.931 11.893s.195-.018.334-.077c.159-.067.267-.171.308-.102.077.128.077.487-.36.487-.284 0-.282-.308-.282-.308z" style="fill:var(--color11, #fff)"/><path fill="#563e3e" d="M26.543 24.608c.651-.15.622-1.152.672-2.501s.5-4.596.751-5.546-.397-1.109-.801-1.199c-.368-.082-2.394.055-2.741.094s-.991.192-1.194.384c-.266.252-.231 3.384-.231 3.384l-.385 4.768s0 .692 1.348.654 2.581-.038 2.581-.038zM21.92 24.116c.011 0 .011-.016 0-.016s-.01.016 0 .016z" style="fill:var(--color23, #563e3e)"/><path fill="#6e5550" d="M22.628 23.818c.18.012.359.029.539.045l.372-4.601s-.035-3.132.231-3.384c.204-.193.848-.346 1.194-.384.266-.03 1.524-.117 2.259-.119l-.058-.013c-.368-.082-2.394.055-2.741.094s-.991.192-1.194.384c-.266.252-.231 3.384-.231 3.384l-.371 4.594z" style="fill:var(--color24, #6e5550)"/><path fill="#fbfbfb" d="M8.557 16.391c.637 0 .975.098.975.098 0 .229-.221.852-.364.967s-.333.182-.611.182c-.278 0-.468-.068-.611-.182s-.364-.738-.364-.967c0 0 .338-.098.975-.098z" style="fill:var(--color37, #fbfbfb)"/><path fill="#eee" d="M9.51 16.514c0 .036-.427.064-.954.064s-.954-.029-.954-.064.427-.097.954-.097.954.062.954.097z" style="fill:var(--color38, #eee)"/><path fill="#fbfbfb" d="M7.862 17.435c.063 0 .102-.01.106-.011l-.021-.091c-.002 0-.2.047-.424-.098-.135-.088-.225-.216-.234-.334a.202.202 0 0 1 .064-.169c.13-.121.294.015.296.016l.056-.073c-.077-.065-.262-.151-.411-.013a.296.296 0 0 0-.093.247c.012.147.118.302.276.405.152.099.294.12.386.12z" style="fill:var(--color37, #fbfbfb)"/><path fill="#eee" d="M8.557 17.543c.517 0 .789-.46.863-.566-.075.213-.174.419-.25.48a4.488 4.488 0 0 0-.167.139c.088.02.142.046.142.074 0 .063-.263.114-.587.114s-.588-.051-.588-.114c0-.028.054-.054.142-.074-.029-.025-.081-.07-.167-.139-.076-.061-.175-.267-.25-.48.073.107.346.566.863.566z" style="fill:var(--color38, #eee)"/><path fill="#f5aa8a" d="m3.376 15.93.006-2.044-1.703.125s-.037 2.522.516 2.983c0 0 .484-.037.828-.304s.354-.76.354-.76z" style="fill:var(--color4, #f5aa8a)"/><path fill="#f5aa8a" d="M2.225 17.025c.64.493 3.762.681 3.762.681l.128-.917s-1.851-1.062-2.287-1.236-.812-.162-.812-.162-.49.124-.669.4c-.18.276-.516.93-.122 1.234z" style="fill:var(--color4, #f5aa8a)"/><path fill="#f5aa8a" d="M7.833 17.581c.014-.141-.108-.102-.327-.093l.05-.01s.345-.021.354-.242c.011-.273-.234-.121-.501-.093a.463.463 0 0 1-.054.003c.055-.008.108-.017.155-.027.261-.057.36-.171.329-.252-.092-.242-.209-.112-.476-.084a1.351 1.351 0 0 1-.396-.045.217.217 0 0 1 .165-.04c.235.039.422-.133.345-.232s-.474-.255-.845-.115c-.371.139-.755.092-.941.435-.16.296-.192.599-.043.857.109.188.592.334.904.338.179.035.386.07.562.064.275-.01.402-.028.457-.11s.013-.112-.061-.142l.004-.001c.141-.016.303-.068.317-.21z" style="fill:var(--color4, #f5aa8a)"/><path fill="#5f6775" d="M3.594 12.063s.177 2.384.008 2.66-2.031.4-2.232.202.043-.397-.026-1.194c-.082-.937.234-2.002.71-2.351.93-.685 1.564.003 1.541.682z" style="fill:var(--color30, #5f6775)"/><path fill="#5f6775" d="M3.555 11.9s.213.25.121.768-.245 1.03-.221 1.301c.025.272.175.618.098.754-.082.147-.257.147-.257.147zM3.21 14.168s-.875-.258-1.425-.29l1.425.29z" style="fill:var(--color30, #5f6775)"/></symbol><symbol id="pagination-arrow-icon" viewBox="0 0 32 32"><path d="m17.562 16-6.6-6.6 1.885-1.885L21.332 16l-8.485 8.485-1.885-1.885 6.6-6.6z"/></symbol><symbol id="search-icon" viewBox="0 0 31 32"><path d="M12.8 23.68c2.272 0 4.478-.761 6.268-2.161l5.627 5.627 1.81-1.81-5.627-5.627a10.184 10.184 0 0 0 2.162-6.269c0-5.646-4.594-10.24-10.24-10.24S2.56 7.794 2.56 13.44 7.154 23.68 12.8 23.68zm0-17.92c4.236 0 7.68 3.444 7.68 7.68s-3.444 7.68-7.68 7.68-7.68-3.444-7.68-7.68 3.444-7.68 7.68-7.68z"/></symbol></defs></svg>