<svg version="1.1" id="Layer_1" xmlns="http://www.w3.org/2000/svg" xmlns:xlink="http://www.w3.org/1999/xlink" x="0px" y="0px"
	 width="100%" viewBox="0 0 859 343" enable-background="new 0 0 859 343" xml:space="preserve">
<path fill="#000000" opacity="0" stroke="none"
	d="
M539.000000,344.000000
	C359.333344,344.000000 180.166672,344.000000 1.000000,344.000000
	C1.000000,229.666672 1.000000,115.333336 1.000000,1.000000
	C287.333344,1.000000 573.666687,1.000000 860.000000,1.000000
	C860.000000,115.333336 860.000000,229.666672 860.000000,344.000000
	C753.166687,344.000000 646.333313,344.000000 539.000000,344.000000
M379.500000,134.998276
	C360.220062,134.998276 340.940155,134.998276 321.453522,134.998276
	C321.453522,141.246170 321.453522,146.978210 321.453522,152.856415
	C393.289764,152.856415 464.838196,152.856415 536.516235,152.856415
	C536.516235,146.811966 536.516235,141.081512 536.516235,134.882965
	C526.816406,134.882965 517.426331,134.882965 507.347351,134.882965
	C512.101257,122.824104 516.592346,111.407608 521.102295,99.998550
	C525.653870,88.484055 530.224121,76.976959 534.971741,64.998268
	C532.330322,64.998268 530.506348,64.998268 528.682312,64.998268
	C498.855469,64.998268 469.027802,65.105171 439.202576,64.887444
	C434.522064,64.853279 432.181915,65.977692 430.785278,70.725555
	C428.377869,78.909531 425.108337,86.839912 422.043732,95.310219
	C404.452972,68.875053 368.963379,66.367157 346.955780,80.537582
	C332.721649,89.702766 326.342010,103.571991 329.412323,119.747269
	C363.818542,119.747269 398.242920,119.747269 432.582855,119.747269
	C436.557892,108.701599 440.549164,97.944405 444.257416,87.090523
	C445.287262,84.076263 446.739594,83.058304 449.954865,83.088135
	C467.782806,83.253563 485.613068,83.163391 503.442535,83.175819
	C504.680206,83.176682 505.917847,83.299698 507.702240,83.395164
	C500.925720,100.922012 494.353760,117.919785 487.750610,134.998276
	C451.802429,134.998276 416.151215,134.998276 379.500000,134.998276
M691.500061,166.130524
	C650.744080,166.130524 609.988037,166.130524 569.149231,166.130524
	C569.149231,172.764938 569.149231,178.812378 569.149231,184.882599
	C664.202148,184.882599 758.895325,184.882599 853.662476,184.882599
	C853.662476,178.556168 853.662476,172.506912 853.662476,166.130524
	C799.714233,166.130524 746.107178,166.130524 691.500061,166.130524
M34.500076,168.194595
	C24.409060,168.194595 14.318043,168.194595 4.235413,168.194595
	C4.235413,174.871887 4.235413,180.812912 4.235413,186.869843
	C99.284592,186.869843 194.091400,186.869843 288.950256,186.869843
	C288.950256,180.579117 288.950256,174.653702 288.950256,168.194595
	C204.292435,168.194595 119.896255,168.194595 34.500076,168.194595
M268.750916,241.671844
	C263.489044,239.766617 258.308899,236.535583 252.949982,236.205353
	C237.030396,235.224380 221.040527,235.380341 205.077469,235.135880
	C204.766266,235.131119 204.446793,235.665787 203.436615,236.571518
	C206.520187,236.867706 208.842178,237.090744 211.160690,237.313461
	C211.160690,262.294098 211.160690,286.994324 211.160690,311.657867
	C208.557220,311.967285 206.333817,312.231537 204.110413,312.495819
	C204.175980,313.041931 204.241547,313.588074 204.307114,314.134186
	C222.245682,312.879333 240.383713,316.514221 258.153931,311.222748
	C270.855103,307.440735 278.805389,298.871582 280.766388,285.940857
	C281.969940,278.004608 281.687225,269.701080 280.984711,261.657471
	C280.279175,253.579346 276.119720,246.887390 268.750916,241.671844
M580.898132,338.157867
	C577.328369,338.157867 573.758667,338.157867 570.174988,338.157867
	C570.174988,328.895142 570.174988,320.472290 570.174988,311.946716
	C583.608948,319.125763 601.819092,314.612061 604.624268,297.739777
	C606.087158,288.940704 606.264038,280.175964 603.111633,271.657043
	C599.977478,263.187653 593.792114,259.123810 584.813232,258.989868
	C578.744141,258.899323 574.170227,261.681152 570.009277,266.527252
	C569.781555,263.947388 569.626038,262.185638 569.478943,260.519165
	C560.326965,260.519165 551.546814,260.519165 542.766663,260.519165
	C542.705933,260.933472 542.645142,261.347778 542.584412,261.762085
	C544.443542,262.202240 546.302673,262.642395 548.147156,263.079071
	C548.147156,288.179199 548.147156,313.034180 548.147156,337.447723
	C545.832214,338.159637 544.025269,338.715332 542.218323,339.271027
	C542.360168,339.715363 542.502075,340.159698 542.643921,340.604034
	C556.489868,340.604034 570.335754,340.604034 584.181641,340.604034
	C584.305176,340.212585 584.428711,339.821136 584.552185,339.429688
	C583.617310,339.006592 582.682495,338.583496 580.898132,338.157867
M378.944855,62.728497
	C398.737396,57.789360 407.362091,34.723003 395.878998,17.438784
	C389.831299,8.335849 379.236481,3.889274 369.600128,6.409733
	C355.811279,10.016299 347.516968,24.110525 349.758514,39.562344
	C351.510406,51.638920 363.525543,64.857056 378.944855,62.728497
M453.303741,315.004547
	C466.710571,314.317413 475.329987,307.957642 477.587311,296.260193
	C478.550110,291.270905 478.784454,285.956573 478.264313,280.901642
	C476.933685,267.969177 470.661652,261.479126 457.953613,259.336090
	C454.543701,258.761047 450.980103,258.961884 447.490479,259.018646
	C432.532959,259.261993 422.505280,268.687927 421.212463,283.621094
	C419.731140,300.731689 427.115723,311.658173 442.412170,314.570740
	C445.640015,315.185394 449.041962,314.885712 453.303741,315.004547
M526.511292,312.157135
	C533.242859,309.081024 537.238953,303.635010 538.489014,296.601776
	C539.407166,291.436096 539.772644,285.989655 539.241455,280.785004
	C537.929749,267.932373 531.569458,261.429932 518.895996,259.315308
	C515.651978,258.774048 512.265869,258.976532 508.946869,259.011200
	C494.007172,259.167358 484.206726,267.877869 482.316223,282.600769
	C480.098633,299.871338 488.029633,312.468353 503.818848,314.453827
	C510.968536,315.352905 518.492981,313.271820 526.511292,312.157135
M313.764404,306.573242
	C310.047913,299.866272 310.392975,292.655121 310.652954,285.011505
	C316.259552,285.011505 321.391296,285.011505 326.523071,285.011505
	C331.621948,285.011505 336.720856,285.011505 341.744507,285.011505
	C343.090729,269.822845 337.201508,261.754608 323.013458,259.553925
	C318.851349,258.908325 314.378632,259.318787 310.180237,260.027252
	C296.313446,262.367340 288.365021,272.436707 288.274323,287.220215
	C288.181732,302.307892 295.739044,312.289886 309.738678,314.632294
	C314.587860,315.443604 319.752960,315.372650 324.642822,314.721405
	C334.254242,313.441376 340.894653,306.490601 341.163483,297.334991
	C334.670410,308.118469 327.706177,317.495453 313.764404,306.573242
M643.128540,266.327759
	C645.380676,269.562866 647.632874,272.798004 650.375610,276.737762
	C650.375610,270.069794 650.375610,264.489655 650.375610,257.234741
	C647.380127,263.017731 644.232605,262.226379 640.421814,260.724030
	C637.430237,259.544678 633.990173,259.114380 630.737183,259.058044
	C620.249023,258.876495 612.979004,264.568726 611.251831,273.907593
	C609.376709,284.046387 613.700989,291.204437 624.258484,294.972015
	C628.777832,296.584808 633.498718,297.627411 638.041443,299.182190
	C641.236267,300.275604 644.560486,301.754425 643.959045,306.037689
	C643.333252,310.494751 639.890198,311.730865 635.978699,312.058380
	C624.636536,313.008118 618.550964,309.292267 614.148560,298.804901
	C613.591003,297.476776 612.914856,296.198334 612.293701,294.896851
	C611.989502,295.050293 611.685303,295.203735 611.381104,295.357178
	C611.381104,301.818481 611.381104,308.279785 611.381104,314.741089
	C615.070129,308.942596 619.015320,312.410614 623.288574,313.462738
	C628.184387,314.668030 633.538452,315.250336 638.513123,314.638062
	C648.783630,313.374054 654.189026,306.497253 654.278870,296.115356
	C654.358032,286.957794 650.564087,281.444885 641.426453,278.123535
	C636.453369,276.315887 631.124207,275.399445 626.315491,273.268860
	C624.198364,272.330841 621.299438,268.851105 621.733948,267.447266
	C622.423828,265.218262 625.362488,262.812317 627.794128,262.174316
	C633.109009,260.779755 638.363525,261.767120 643.128540,266.327759
M382.601044,307.211639
	C386.217743,295.966522 389.674377,284.666138 393.527435,273.502594
	C395.140045,268.830231 394.488373,262.289459 401.816833,260.828918
	C396.640503,260.828918 391.464172,260.828918 386.287872,260.828918
	C386.242340,261.326660 386.196777,261.824402 386.151245,262.322113
	C388.424866,262.626556 390.698486,262.930969 393.465454,263.301453
	C389.721710,274.792175 386.047852,286.068359 382.373993,297.344513
	C382.012146,297.327332 381.650269,297.310150 381.288422,297.292938
	C377.214844,285.998474 373.141266,274.704041 369.036346,263.322693
	C371.592926,262.908051 373.710327,262.564636 375.827759,262.221222
	C375.780457,261.776978 375.733154,261.332733 375.685852,260.888489
	C364.454865,260.888489 353.223846,260.888489 341.992859,260.888489
	C341.765076,261.323669 341.537323,261.758850 341.309540,262.194031
	C347.808044,262.094360 348.068085,267.214600 349.648438,271.033569
	C355.054230,284.097015 360.262085,297.242279 365.578552,310.342896
	C366.068054,311.549103 366.708252,313.594208 367.423279,313.659332
	C371.382202,314.019775 375.482117,314.386871 379.321381,313.648102
	C380.633423,313.395660 381.329987,309.944427 382.601044,307.211639
M409.656921,251.994507
	C409.831787,253.817413 409.847626,255.676041 410.245789,257.448822
	C410.457825,258.393127 411.331055,259.188934 411.905853,260.051788
	C412.583435,259.277283 413.657959,258.599518 413.874023,257.712555
	C415.252136,252.055801 416.508881,246.366684 417.663239,240.659439
	C418.221680,237.898544 418.691803,235.083969 418.804352,232.277771
	C418.944672,228.780243 416.657349,227.439835 413.565826,228.071625
	C410.799072,228.637024 406.833313,228.097031 407.588898,233.244904
	C408.458160,239.167374 408.916199,245.150208 409.656921,251.994507
z"/>
<path fill="#FFFFFF" opacity="1.000000" stroke="none"
	d="
M380.000000,134.998276
	C416.151215,134.998276 451.802429,134.998276 487.750610,134.998276
	C494.353760,117.919785 500.925720,100.922012 507.702240,83.395164
	C505.917847,83.299698 504.680206,83.176682 503.442535,83.175819
	C485.613068,83.163391 467.782806,83.253563 449.954865,83.088135
	C446.739594,83.058304 445.287262,84.076263 444.257416,87.090523
	C440.549164,97.944405 436.557892,108.701599 432.582855,119.747269
	C398.242920,119.747269 363.818542,119.747269 329.412323,119.747269
	C326.342010,103.571991 332.721649,89.702766 346.955780,80.537582
	C368.963379,66.367157 404.452972,68.875053 422.043732,95.310219
	C425.108337,86.839912 428.377869,78.909531 430.785278,70.725555
	C432.181915,65.977692 434.522064,64.853279 439.202576,64.887444
	C469.027802,65.105171 498.855469,64.998268 528.682312,64.998268
	C530.506348,64.998268 532.330322,64.998268 534.971741,64.998268
	C530.224121,76.976959 525.653870,88.484055 521.102295,99.998550
	C516.592346,111.407608 512.101257,122.824104 507.347351,134.882965
	C517.426331,134.882965 526.816406,134.882965 536.516235,134.882965
	C536.516235,141.081512 536.516235,146.811966 536.516235,152.856415
	C464.838196,152.856415 393.289764,152.856415 321.453522,152.856415
	C321.453522,146.978210 321.453522,141.246170 321.453522,134.998276
	C340.940155,134.998276 360.220062,134.998276 380.000000,134.998276
M352.175598,104.554329
	C369.834412,104.554329 387.493225,104.554329 405.656464,104.554329
	C399.561005,94.128700 384.501099,87.980385 371.922455,90.324821
	C363.801788,91.838379 356.100616,94.409630 350.622253,101.164696
	C349.630219,102.387909 347.396545,104.219879 352.175598,104.554329
z"/>
<path fill="#FFFFFF" opacity="1.000000" stroke="none"
	d="
M692.000122,166.130524
	C746.107178,166.130524 799.714233,166.130524 853.662476,166.130524
	C853.662476,172.506912 853.662476,178.556168 853.662476,184.882599
	C758.895325,184.882599 664.202148,184.882599 569.149231,184.882599
	C569.149231,178.812378 569.149231,172.764938 569.149231,166.130524
	C609.988037,166.130524 650.744080,166.130524 692.000122,166.130524
z"/>
<path fill="#FFFFFF" opacity="1.000000" stroke="none"
	d="
M35.000076,168.194595
	C119.896255,168.194595 204.292435,168.194595 288.950256,168.194595
	C288.950256,174.653702 288.950256,180.579117 288.950256,186.869843
	C194.091400,186.869843 99.284592,186.869843 4.235413,186.869843
	C4.235413,180.812912 4.235413,174.871887 4.235413,168.194595
	C14.318043,168.194595 24.409060,168.194595 35.000076,168.194595
z"/>
<path fill="#FFFFFF" opacity="1.000000" stroke="none"
	d="
M269.054199,241.869965
	C276.119720,246.887390 280.279175,253.579346 280.984711,261.657471
	C281.687225,269.701080 281.969940,278.004608 280.766388,285.940857
	C278.805389,298.871582 270.855103,307.440735 258.153931,311.222748
	C240.383713,316.514221 222.245682,312.879333 204.307114,314.134186
	C204.241547,313.588074 204.175980,313.041931 204.110413,312.495819
	C206.333817,312.231537 208.557220,311.967285 211.160690,311.657867
	C211.160690,286.994324 211.160690,262.294098 211.160690,237.313461
	C208.842178,237.090744 206.520187,236.867706 203.436615,236.571518
	C204.446793,235.665787 204.766266,235.131119 205.077469,235.135880
	C221.040527,235.380341 237.030396,235.224380 252.949982,236.205353
	C258.308899,236.535583 263.489044,239.766617 269.054199,241.869965
M233.850983,246.535294
	C233.850983,268.257629 233.850983,289.979950 233.850983,311.648865
	C247.057159,312.668121 254.302826,308.022552 256.812897,296.325897
	C259.912262,281.883331 259.962830,267.221191 257.129608,252.738937
	C254.732559,240.486206 246.553040,235.441849 233.850983,237.693283
	C233.850983,240.269302 233.850983,242.908112 233.850983,246.535294
z"/>
<path fill="#FFFFFF" opacity="1.000000" stroke="none"
	d="
M581.322876,338.159149
	C582.682495,338.583496 583.617310,339.006592 584.552185,339.429688
	C584.428711,339.821136 584.305176,340.212585 584.181641,340.604034
	C570.335754,340.604034 556.489868,340.604034 542.643921,340.604034
	C542.502075,340.159698 542.360168,339.715363 542.218323,339.271027
	C544.025269,338.715332 545.832214,338.159637 548.147156,337.447723
	C548.147156,313.034180 548.147156,288.179199 548.147156,263.079071
	C546.302673,262.642395 544.443542,262.202240 542.584412,261.762085
	C542.645142,261.347778 542.705933,260.933472 542.766663,260.519165
	C551.546814,260.519165 560.326965,260.519165 569.478943,260.519165
	C569.626038,262.185638 569.781555,263.947388 570.009277,266.527252
	C574.170227,261.681152 578.744141,258.899323 584.813232,258.989868
	C593.792114,259.123810 599.977478,263.187653 603.111633,271.657043
	C606.264038,280.175964 606.087158,288.940704 604.624268,297.739777
	C601.819092,314.612061 583.608948,319.125763 570.174988,311.946716
	C570.174988,320.472290 570.174988,328.895142 570.174988,338.157867
	C573.758667,338.157867 577.328369,338.157867 581.322876,338.159149
M583.290161,293.469696
	C583.126892,285.830750 583.243103,278.169067 582.625000,270.567078
	C582.446533,268.371735 580.157104,266.347961 578.835388,264.245544
	C576.638550,265.776031 573.123535,266.875916 572.459839,268.907288
	C568.302612,281.632233 568.987732,294.685089 571.731506,307.579895
	C572.072571,309.182770 575.444214,311.095459 577.408691,311.092346
	C578.945190,311.089905 581.368896,308.568970 581.829041,306.766479
	C582.842346,302.797180 582.863464,298.574585 583.290161,293.469696
z"/>
<path fill="#FFFFFF" opacity="1.000000" stroke="none"
	d="
M378.515045,62.773109
	C363.525543,64.857056 351.510406,51.638920 349.758514,39.562344
	C347.516968,24.110525 355.811279,10.016299 369.600128,6.409733
	C379.236481,3.889274 389.831299,8.335849 395.878998,17.438784
	C407.362091,34.723003 398.737396,57.789360 378.515045,62.773109
M375.447052,23.935472
	C371.214783,24.385849 368.890259,27.131882 368.041229,30.910912
	C367.066742,35.248276 367.426910,39.562561 370.990204,42.866035
	C373.855377,45.522297 377.511688,45.133865 380.109558,42.050953
	C384.913849,36.349556 383.008911,27.569962 375.447052,23.935472
z"/>
<path fill="#FFFFFF" opacity="1.000000" stroke="none"
	d="
M452.833740,315.005920
	C449.041962,314.885712 445.640015,315.185394 442.412170,314.570740
	C427.115723,311.658173 419.731140,300.731689 421.212463,283.621094
	C422.505280,268.687927 432.532959,259.261993 447.490479,259.018646
	C450.980103,258.961884 454.543701,258.761047 457.953613,259.336090
	C470.661652,261.479126 476.933685,267.969177 478.264313,280.901642
	C478.784454,285.956573 478.550110,291.270905 477.587311,296.260193
	C475.329987,307.957642 466.710571,314.317413 452.833740,315.005920
M449.640015,312.864838
	C454.787628,312.683075 455.976990,308.941589 456.043671,304.965607
	C456.241180,293.185394 456.157532,281.398956 456.033813,269.616547
	C456.015259,267.850464 455.472198,265.954498 454.685516,264.358246
	C452.655731,260.239716 448.008423,260.039154 445.563812,263.899353
	C444.869537,264.995636 444.177704,266.345886 444.168518,267.584747
	C444.071655,280.675323 443.911102,293.773407 444.329803,306.851410
	C444.394196,308.862457 447.300323,310.782532 449.640015,312.864838
z"/>
<path fill="#FFFFFF" opacity="1.000000" stroke="none"
	d="
M526.179321,312.349915
	C518.492981,313.271820 510.968536,315.352905 503.818848,314.453827
	C488.029633,312.468353 480.098633,299.871338 482.316223,282.600769
	C484.206726,267.877869 494.007172,259.167358 508.946869,259.011200
	C512.265869,258.976532 515.651978,258.774048 518.895996,259.315308
	C531.569458,261.429932 537.929749,267.932373 539.241455,280.785004
	C539.772644,285.989655 539.407166,291.436096 538.489014,296.601776
	C537.238953,303.635010 533.242859,309.081024 526.179321,312.349915
M504.063965,283.520264
	C504.389343,291.166229 504.532715,298.826294 505.124634,306.451569
	C505.381744,309.763702 507.123779,312.714996 510.995056,312.800232
	C514.967346,312.887665 516.773560,309.886230 516.826843,306.572235
	C517.035156,293.608704 517.018066,280.635773 516.732361,267.674103
	C516.661682,264.465302 515.009827,261.213654 511.044312,261.225861
	C507.161713,261.237793 505.605103,264.344147 505.181274,267.605499
	C504.539246,272.545593 504.410858,277.552399 504.063965,283.520264
z"/>
<path fill="#FFFFFF" opacity="1.000000" stroke="none"
	d="
M313.964783,306.905823
	C327.706177,317.495453 334.670410,308.118469 341.163483,297.334991
	C340.894653,306.490601 334.254242,313.441376 324.642822,314.721405
	C319.752960,315.372650 314.587860,315.443604 309.738678,314.632294
	C295.739044,312.289886 288.181732,302.307892 288.274323,287.220215
	C288.365021,272.436707 296.313446,262.367340 310.180237,260.027252
	C314.378632,259.318787 318.851349,258.908325 323.013458,259.553925
	C337.201508,261.754608 343.090729,269.822845 341.744507,285.011505
	C336.720856,285.011505 331.621948,285.011505 326.523071,285.011505
	C321.391296,285.011505 316.259552,285.011505 310.652954,285.011505
	C310.392975,292.655121 310.047913,299.866272 313.964783,306.905823
M318.241669,282.889191
	C319.411224,281.963440 321.551819,281.070404 321.584290,280.106384
	C321.734558,275.642883 321.667511,271.094574 320.893555,266.715363
	C320.581299,264.948578 318.045166,262.109894 316.907562,262.283997
	C315.019836,262.572906 312.299042,264.674103 311.952026,266.415100
	C310.908051,271.653015 310.840027,277.085480 310.353790,282.890228
	C313.392578,282.890228 315.358551,282.890228 318.241669,282.889191
z"/>
<path fill="#FFFFFF" opacity="1.000000" stroke="none"
	d="
M642.866455,266.068848
	C638.363525,261.767120 633.109009,260.779755 627.794128,262.174316
	C625.362488,262.812317 622.423828,265.218262 621.733948,267.447266
	C621.299438,268.851105 624.198364,272.330841 626.315491,273.268860
	C631.124207,275.399445 636.453369,276.315887 641.426453,278.123535
	C650.564087,281.444885 654.358032,286.957794 654.278870,296.115356
	C654.189026,306.497253 648.783630,313.374054 638.513123,314.638062
	C633.538452,315.250336 628.184387,314.668030 623.288574,313.462738
	C619.015320,312.410614 615.070129,308.942596 611.381104,314.741089
	C611.381104,308.279785 611.381104,301.818481 611.381104,295.357178
	C611.685303,295.203735 611.989502,295.050293 612.293701,294.896851
	C612.914856,296.198334 613.591003,297.476776 614.148560,298.804901
	C618.550964,309.292267 624.636536,313.008118 635.978699,312.058380
	C639.890198,311.730865 643.333252,310.494751 643.959045,306.037689
	C644.560486,301.754425 641.236267,300.275604 638.041443,299.182190
	C633.498718,297.627411 628.777832,296.584808 624.258484,294.972015
	C613.700989,291.204437 609.376709,284.046387 611.251831,273.907593
	C612.979004,264.568726 620.249023,258.876495 630.737183,259.058044
	C633.990173,259.114380 637.430237,259.544678 640.421814,260.724030
	C644.232605,262.226379 647.380127,263.017731 650.375610,257.234741
	C650.375610,264.489655 650.375610,270.069794 650.375610,276.737762
	C647.632874,272.798004 645.380676,269.562866 642.866455,266.068848
z"/>
<path fill="#FFFFFF" opacity="1.000000" stroke="none"
	d="
M382.454407,307.583191
	C381.329987,309.944427 380.633423,313.395660 379.321381,313.648102
	C375.482117,314.386871 371.382202,314.019775 367.423279,313.659332
	C366.708252,313.594208 366.068054,311.549103 365.578552,310.342896
	C360.262085,297.242279 355.054230,284.097015 349.648438,271.033569
	C348.068085,267.214600 347.808044,262.094360 341.309540,262.194031
	C341.537323,261.758850 341.765076,261.323669 341.992859,260.888489
	C353.223846,260.888489 364.454865,260.888489 375.685852,260.888489
	C375.733154,261.332733 375.780457,261.776978 375.827759,262.221222
	C373.710327,262.564636 371.592926,262.908051 369.036346,263.322693
	C373.141266,274.704041 377.214844,285.998474 381.288422,297.292938
	C381.650269,297.310150 382.012146,297.327332 382.373993,297.344513
	C386.047852,286.068359 389.721710,274.792175 393.465454,263.301453
	C390.698486,262.930969 388.424866,262.626556 386.151245,262.322113
	C386.196777,261.824402 386.242340,261.326660 386.287872,260.828918
	C391.464172,260.828918 396.640503,260.828918 401.816833,260.828918
	C394.488373,262.289459 395.140045,268.830231 393.527435,273.502594
	C389.674377,284.666138 386.217743,295.966522 382.454407,307.583191
z"/>
<path fill="#FFFFFF" opacity="1.000000" stroke="none"
	d="
M409.604858,251.550659
	C408.916199,245.150208 408.458160,239.167374 407.588898,233.244904
	C406.833313,228.097031 410.799072,228.637024 413.565826,228.071625
	C416.657349,227.439835 418.944672,228.780243 418.804352,232.277771
	C418.691803,235.083969 418.221680,237.898544 417.663239,240.659439
	C416.508881,246.366684 415.252136,252.055801 413.874023,257.712555
	C413.657959,258.599518 412.583435,259.277283 411.905853,260.051788
	C411.331055,259.188934 410.457825,258.393127 410.245789,257.448822
	C409.847626,255.676041 409.831787,253.817413 409.604858,251.550659
z"/>
<path fill="#FFFFFF" opacity="0" stroke="none"
	d="
M351.757812,104.550934
	C347.396545,104.219879 349.630219,102.387909 350.622253,101.164696
	C356.100616,94.409630 363.801788,91.838379 371.922455,90.324821
	C384.501099,87.980385 399.561005,94.128700 405.656464,104.554329
	C387.493225,104.554329 369.834412,104.554329 351.757812,104.550934
z"/>
<path fill="#FFFFFF" opacity="0" stroke="none"
	d="
M233.850983,246.041107
	C233.850983,242.908112 233.850983,240.269302 233.850983,237.693283
	C246.553040,235.441849 254.732559,240.486206 257.129608,252.738937
	C259.962830,267.221191 259.912262,281.883331 256.812897,296.325897
	C254.302826,308.022552 247.057159,312.668121 233.850983,311.648865
	C233.850983,289.979950 233.850983,268.257629 233.850983,246.041107
z"/>
<path fill="#FFFFFF" opacity="0" stroke="none"
	d="
M583.289795,293.962524
	C582.863464,298.574585 582.842346,302.797180 581.829041,306.766479
	C581.368896,308.568970 578.945190,311.089905 577.408691,311.092346
	C575.444214,311.095459 572.072571,309.182770 571.731506,307.579895
	C568.987732,294.685089 568.302612,281.632233 572.459839,268.907288
	C573.123535,266.875916 576.638550,265.776031 578.835388,264.245544
	C580.157104,266.347961 582.446533,268.371735 582.625000,270.567078
	C583.243103,278.169067 583.126892,285.830750 583.289795,293.962524
z"/>
<path fill="#FFFFFF" opacity="0" stroke="none"
	d="
M375.825806,23.994404
	C383.008911,27.569962 384.913849,36.349556 380.109558,42.050953
	C377.511688,45.133865 373.855377,45.522297 370.990204,42.866035
	C367.426910,39.562561 367.066742,35.248276 368.041229,30.910912
	C368.890259,27.131882 371.214783,24.385849 375.825806,23.994404
z"/>
<path fill="#FFFFFF" opacity="0" stroke="none"
	d="
M449.266113,312.804749
	C447.300323,310.782532 444.394196,308.862457 444.329803,306.851410
	C443.911102,293.773407 444.071655,280.675323 444.168518,267.584747
	C444.177704,266.345886 444.869537,264.995636 445.563812,263.899353
	C448.008423,260.039154 452.655731,260.239716 454.685516,264.358246
	C455.472198,265.954498 456.015259,267.850464 456.033813,269.616547
	C456.157532,281.398956 456.241180,293.185394 456.043671,304.965607
	C455.976990,308.941589 454.787628,312.683075 449.266113,312.804749
z"/>
<path fill="#FFFFFF" opacity="0" stroke="none"
	d="
M504.064087,283.025574
	C504.410858,277.552399 504.539246,272.545593 505.181274,267.605499
	C505.605103,264.344147 507.161713,261.237793 511.044312,261.225861
	C515.009827,261.213654 516.661682,264.465302 516.732361,267.674103
	C517.018066,280.635773 517.035156,293.608704 516.826843,306.572235
	C516.773560,309.886230 514.967346,312.887665 510.995056,312.800232
	C507.123779,312.714996 505.381744,309.763702 505.124634,306.451569
	C504.532715,298.826294 504.389343,291.166229 504.064087,283.025574
z"/>
<path fill="#FFFFFF" opacity="0" stroke="none"
	d="
M317.783081,282.889709
	C315.358551,282.890228 313.392578,282.890228 310.353790,282.890228
	C310.840027,277.085480 310.908051,271.653015 311.952026,266.415100
	C312.299042,264.674103 315.019836,262.572906 316.907562,262.283997
	C318.045166,262.109894 320.581299,264.948578 320.893555,266.715363
	C321.667511,271.094574 321.734558,275.642883 321.584290,280.106384
	C321.551819,281.070404 319.411224,281.963440 317.783081,282.889709
z"/>
</svg>
